<svg xmlns="http://www.w3.org/2000/svg" viewBox="0 0 100 100" width="100" height="100">
  <defs>
    <linearGradient id="kidneyGradient" x1="0%" y1="0%" x2="100%" y2="100%">
      <stop offset="0%" style="stop-color:#3B82F6;stop-opacity:1" />
      <stop offset="50%" style="stop-color:#06B6D4;stop-opacity:1" />
      <stop offset="100%" style="stop-color:#0EA5E9;stop-opacity:1" />
    </linearGradient>
    <linearGradient id="aiGradient" x1="0%" y1="0%" x2="100%" y2="100%">
      <stop offset="0%" style="stop-color:#10B981;stop-opacity:1" />
      <stop offset="100%" style="stop-color:#059669;stop-opacity:1" />
    </linearGradient>
  </defs>
  
  <!-- Background circle -->
  <circle cx="50" cy="50" r="48" fill="url(#kidneyGradient)" stroke="#1E40AF" stroke-width="2"/>
  
  <!-- Kidney shape -->
  <path d="M35 25 C45 20, 55 25, 60 35 C65 45, 60 55, 55 65 C50 70, 45 68, 42 65 C40 62, 38 58, 36 55 C34 50, 32 45, 30 40 C28 35, 30 30, 35 25 Z" 
        fill="white" 
        stroke="#1E40AF" 
        stroke-width="1.5"/>
  
  <!-- Inner kidney detail -->
  <ellipse cx="45" cy="45" rx="8" ry="12" fill="#EBF8FF" stroke="#3B82F6" stroke-width="1"/>
  
  <!-- AI circuit pattern -->
  <g stroke="url(#aiGradient)" stroke-width="1.5" fill="none" opacity="0.8">
    <!-- Circuit lines -->
    <line x1="20" y1="20" x2="30" y2="25"/>
    <line x1="70" y1="25" x2="80" y2="20"/>
    <line x1="20" y1="80" x2="30" y2="75"/>
    <line x1="70" y1="75" x2="80" y2="80"/>
    
    <!-- Circuit nodes -->
    <circle cx="25" cy="22" r="2" fill="url(#aiGradient)"/>
    <circle cx="75" cy="22" r="2" fill="url(#aiGradient)"/>
    <circle cx="25" cy="78" r="2" fill="url(#aiGradient)"/>
    <circle cx="75" cy="78" r="2" fill="url(#aiGradient)"/>
  </g>
  
  <!-- Medical cross accent -->
  <g fill="white" opacity="0.9">
    <rect x="67" y="15" width="2" height="8"/>
    <rect x="63" y="17" width="8" height="2"/>
  </g>
</svg>
